<?xml version="1.0" encoding="utf-8"?>
<!-- Generator: Adobe Illustrator 25.2.1, SVG Export Plug-In . SVG Version: 6.00 Build 0)  -->
<svg version="1.1" id="Layer_1" xmlns="http://www.w3.org/2000/svg" xmlns:xlink="http://www.w3.org/1999/xlink" x="0px" y="0px"
	 viewBox="0 0 800 800" style="enable-background:new 0 0 800 800;" xml:space="preserve">
<style type="text/css">
	.st0{fill:#E74242;}
	.st1{opacity:0.1;fill:#FFFFFF;enable-background:new    ;}
	.st2{fill:#FFFFFF;}
	.st3{fill:url(#SVGID_1_);}
	.st4{fill:#111F2C;}
	.st5{fill:#5E7083;}
	.st6{fill:#04182D;}
	.st7{fill:#97A3AF;}
	.st8{fill:#515171;}
	.st9{fill:#BAC7D4;}
	.st10{fill:#BEBCFF;}
	.st11{fill:#243C54;}
	.st12{fill:url(#SVGID_2_);}
	.st13{fill:url(#SVGID_3_);}
	.st14{opacity:0.2;}
	.st15{fill:#293039;}
	.st16{fill:none;stroke:#000000;stroke-width:11.7106;stroke-miterlimit:10;}
	.st17{fill:#A3ADB8;}
</style>
<g id="Layer_3">
	<rect class="st0" width="800" height="800"/>
	<rect class="st1" width="800" height="800"/>
</g>
<g id="Layer_2_1_">
</g>
<g>
	<path class="st2" d="M482.8,242.2c-9.6-11.4-64.4-74.3-158.8-81.1c-97.1-7-161.7,50.7-172.3,60.5c-17.5,25.5-51.8,83.3-55.4,163.7
		c-5.4,122.3,64.4,206.1,81.2,225.2c83.1,28.5,174.2,22.6,252.9-16.5c59.8-69.5,119.7-139,179.5-208.5L482.8,242.2z"/>
	
		<linearGradient id="SVGID_1_" gradientUnits="userSpaceOnUse" x1="388.0095" y1="448.4144" x2="408.8531" y2="244.3674" gradientTransform="matrix(1 0 0 -1 -88.0238 713.7935)">
		<stop  offset="0.3118" style="stop-color:#00D7FF"/>
		<stop  offset="0.5638" style="stop-color:#02CEFA"/>
		<stop  offset="0.9738" style="stop-color:#07B6EC"/>
		<stop  offset="1" style="stop-color:#07B4EB"/>
	</linearGradient>
	<path class="st3" d="M535.4,226.1C467.3,247.9,398,266,328,280.3c-89.7,18.3-180.5,30.4-271.8,36.1c-4,19.4-6.4,39-7.3,58.8
		c-1.8,33.9,0,76.9,14.6,113.2l39.2-0.7c37.7-0.7,73.8-17.5,97.2-47.1c8.5-10.8,22.3-19.1,44.5-18.8c0,0,41.6-6.4,59.3,52.1
		c0,0,219.4-41.5,262.9-64.8l14.2-7.9c-8.8-5.5-42.8-28.4-56.4-74C509.1,275.9,531,234,535.4,226.1z"/>
	<circle class="st4" cx="631.6" cy="295.1" r="113.9"/>
	<path class="st2" d="M631.6,409.7c-63.3,0-114.6-51.3-114.6-114.6s51.3-114.6,114.6-114.6s114.6,51.3,114.6,114.6
		C746.1,358.4,694.9,409.7,631.6,409.7z M631.6,181.8c-62.6,0-113.3,50.7-113.3,113.3S569,408.4,631.6,408.4s113.3-50.7,113.3-113.3
		C744.8,232.6,694.1,181.9,631.6,181.8L631.6,181.8z"/>
	<ellipse class="st5" cx="649.3" cy="292.5" rx="79.3" ry="83.2"/>
	<path class="st2" d="M649.3,376.3c-44.1,0-79.9-37.6-79.9-83.8s35.9-83.8,79.9-83.8s79.9,37.6,79.9,83.8S693.4,376.3,649.3,376.3z
		 M649.3,210c-43.4,0-78.6,37-78.6,82.5S606,375,649.3,375c43.4,0,78.6-37,78.6-82.5S692.7,210,649.3,210L649.3,210z"/>
	<path class="st6" d="M723.3,357.5c3,22.9,16.6,142.2-65.6,240.1c-40.7,48.5-88.5,72.3-116.9,83.6c-13.1-4.5-24.6-12.7-33.3-23.5
		c-10.7-13.7-11.8-30.5-11.3-47.9c24-21.1-0.2-87.3-14.6-132.4L723.3,357.5z"/>
	<path class="st7" d="M430.3,593.8c-79.7,35.1-169.3,41-252.9,16.5c18.5,20.7,71.9,75,160.8,95.7c102,23.8,183.4-12.4,206.8-23.8
		l-26.1-17.8c-3.6-2.5-6.8-5.7-9.2-9.4l-9.1-14.1c-2.2-3.4-3.8-7.2-4.6-11.1l-4.3-20.2L430.3,593.8z"/>
	<path class="st0" d="M232.7,440.9c-34.7,19.7-72.5,33.3-111.9,40.1c32.9,35.1,83.5,47.3,128.7,31c1.7-3.3,11.5-22.9,3.3-45.2
		C248.9,456.4,241.9,447.4,232.7,440.9z"/>
	<path class="st2" d="M208.4,519.8c-10.4,0-20.7-1.3-30.8-4c-21.9-5.9-41.7-17.7-57.2-34.3l-0.8-0.9l1.2-0.2
		c39.2-6.8,77-20.4,111.7-40.1l0.4-0.2l0.3,0.2c9.3,6.5,16.4,15.6,20.4,26.2c7.9,21.3-0.6,40.4-3.3,45.8l-0.1,0.2l-0.2,0.1
		C236.5,517.4,222.5,519.8,208.4,519.8z M122.2,481.5c15.2,15.9,34.5,27.4,55.8,33c23.5,6.1,48.3,5.1,71.1-3
		c2.8-5.5,10.7-23.9,3.1-44.5c-3.8-10.2-10.6-19.1-19.6-25.4C198.4,461.2,161,474.6,122.2,481.5L122.2,481.5z"/>
	<path class="st0" d="M456.8,484.6c0,0-16.9,12-32.8,34.5c-13.5,19.2-20.3,28.8-19.6,37.8c1.5,21.7,29,37.4,45.9,42.5
		c7.5,2.3,15.3,3,31.1,4.4c8.6,0.8,17.2,0.7,25.7-0.4c0,0,7.6-41.7-6.1-67.5C481.2,498.4,456.8,484.6,456.8,484.6z"/>
	<path class="st2" d="M492.7,605c-3.4,0-7.2-0.1-11.2-0.5c-15.8-1.4-23.8-2.1-31.3-4.4c-17.8-5.4-44.9-21.3-46.4-43.1
		c-0.6-9.3,6.2-19,19.8-38.3c15.8-22.4,32.8-34.6,32.9-34.7l0.3-0.2l0.4,0.2c0.2,0.1,24.7,14.3,44.6,51.6
		c13.7,25.7,6.2,67.5,6.2,67.9l-0.1,0.5l-0.5,0.1C502.5,604.7,497.6,605,492.7,605z M456.9,485.3c-12.4,9.7-23.3,21.2-32.3,34.1
		c-13.4,19-20.1,28.6-19.5,37.4c0.8,11.9,9.7,21.2,17,27c8.5,6.6,18.2,11.7,28.5,14.9c7.4,2.2,15.3,2.9,31,4.4
		c8.4,0.8,16.8,0.7,25.1-0.3c0.8-4.6,6.6-42.8-6.1-66.6C482.2,501.7,459.9,487.2,456.9,485.3z"/>
	<path class="st0" d="M165.3,203.3c11-14.1,90.6-112.8,230.2-118.4c137.1-5.6,223.6,83,236.2,96.3c-36.7,2-71.2,18.1-96.2,44.9
		l-52.6,16c-16.1-18.4-53.4-55.7-113.3-73C265.5,139.2,179,194.3,165.3,203.3z"/>
	<path class="st2" d="M482.5,242.9l-0.3-0.3c-21.4-24.5-58.5-57.1-113-72.8c-98.2-28.3-180.7,18.9-203.7,34l-3.3,2.2l2.4-3.1
		c8-10.3,30.6-37,67-62.5c49.8-34.9,104.8-53.8,163.6-56.2c57.8-2.4,113.4,11.5,165.1,41.2c26.4,15,50.5,33.6,71.6,55.4l1,1
		l-1.4,0.1c-36.5,2-70.8,18-95.8,44.7l-0.1,0.1L482.5,242.9z M306.5,159.7c21.4,0,42.6,3,63.1,8.9c54.6,15.7,91.7,48.2,113.3,72.8
		l52-15.9c24.9-26.5,58.9-42.6,95.2-44.9c-20.8-21.2-44.5-39.4-70.3-54.1C508.3,97,453,83.2,395.4,85.5
		c-58.5,2.4-113.4,21.2-162.9,55.9c-24,16.7-45.6,36.6-64.3,59.2C188.9,187.6,240.8,159.7,306.5,159.7z"/>
	<path class="st8" d="M530.2,474.7L503.8,506c8.2,15.3,12.2,32.5,11.7,49.8c-0.3,7.8-1.5,15.6-3.7,23.1c-2.1-13-5.7-25.8-10.6-38
		c-8.6-21.3-21.2-40.7-37-57.3l6.8-8.3L530.2,474.7z"/>
	<path class="st8" d="M539,510.8c10.3,20.3,12.2,43.9,5.2,65.6c3.6-7.1,7.3-14.2,10.9-21.2c3.3-6.5,3-14.3-0.9-20.5L539,510.8z"/>
	<path class="st9" d="M536.1,689.2c-15.6,7-31.8,12.6-48.4,16.8c-149.6,38.1-263-52-274.5-61.5c17.3,10.8,144.8,87.3,295.8,35.8
		c4.6-1.6,9.1-3.2,13.5-4.9l11.3,6.8L536.1,689.2z"/>
	<path class="st8" d="M548.1,683.5l-17.5-11.4c107.9-45.4,158.5-133.8,170.4-156C696.7,527.4,655.3,629.8,548.1,683.5
		c-0.4-1.2-1.3-2.3-2.4-3"/>
	<path class="st10" d="M683.7,362.8c-35.6,4.1-70-14.2-85.7-45.4c-17-33.6-8.9-75.5,19.9-101.3c-8.5,5-28.3,18.2-39,43.4
		c-11.3,26.7-12.7,68.1,15,93.8c19.5,18,47.4,22.8,69.6,17.6C670.7,369.1,677.5,366.4,683.7,362.8z"/>
	<path class="st11" d="M643.7,408.4c-48.2-7.5-87.5-41.5-100.3-86.6c-14.7-52,8.6-109.6,57.6-138.7c-57,16.1-92.8,73.2-82.6,130.9
		C528.9,372.7,583.7,414.4,643.7,408.4z"/>
	
		<linearGradient id="SVGID_2_" gradientUnits="userSpaceOnUse" x1="530.4824" y1="463.1406" x2="553.2243" y2="267.5603" gradientTransform="matrix(1 0 0 -1 -88.0238 713.7935)">
		<stop  offset="0.3532" style="stop-color:#4358FF"/>
		<stop  offset="0.456" style="stop-color:#5540FF"/>
		<stop  offset="0.6703" style="stop-color:#7812FF"/>
		<stop  offset="0.7779" style="stop-color:#8500FF"/>
	</linearGradient>
	<path class="st12" d="M346.5,466.7c41.3-8.8,84.6-19.3,129.5-31.8c31.4-8.8,61.6-18,90.5-27.6c4.5-4.3,9.1-8.6,13.6-13l-22.8-15.4
		c-9.2-8.7-17.1-18.7-23.5-29.6c-7.2-12.4-12.4-26-15.4-40c-3.9-12.5-4.7-25.7-2.2-38.5c1.5-7.7,4.3-15.1,8.1-21.9
		c-46.3,17.2-93.6,32-141.5,44.3C370.8,351,358.6,408.9,346.5,466.7z"/>
	
		<linearGradient id="SVGID_3_" gradientUnits="userSpaceOnUse" x1="341.9583" y1="440.5192" x2="364.6477" y2="245.3902" gradientTransform="matrix(1 0 0 -1 -88.0238 713.7935)">
		<stop  offset="0.3532" style="stop-color:#4358FF"/>
		<stop  offset="0.456" style="stop-color:#5540FF"/>
		<stop  offset="0.6703" style="stop-color:#7812FF"/>
		<stop  offset="0.7779" style="stop-color:#8500FF"/>
	</linearGradient>
	<path class="st13" d="M291.3,445.7c-5.7-7.9-13.2-14.3-21.9-18.6c-21.2-10.4-46.9-6.9-66.1,8.8l25.8-112.6
		c30.8-4.3,63.7-9.9,98.3-17.3L291.3,445.7z"/>
	<path class="st14" d="M118.3,481.3c42.9,17.9,90.5,21.6,135.7,10.5c-2.4,7.6-4.9,15.1-7.3,22.7c-12.7,3.5-52.1,12.7-92.7-7
		C140.6,501,128.5,492.1,118.3,481.3z"/>
	<path class="st15" d="M676.2,268.1c0.2-1.8,1.8-3.1,3.5-2.9c0.9,0.1,1.6,0.5,2.2,1.2l28.9,34.9c2.4,2.9,2,7.2-0.9,9.6
		c-0.7,0.6-1.6,1-2.5,1.3l-28.6,7.5c-3,0.8-6.2-1-6.9-4.1c-0.2-0.7-0.2-1.3-0.2-2L676.2,268.1z"/>
	<path class="st15" d="M665.5,316.7c-0.4,3.9-3.1,7.2-6.9,8.2l-28,7.3c-3.5,0.8-7.1-1.4-7.9-4.9c-0.2-0.9-0.2-1.8-0.1-2.7l14.9-94.9
		c0.4-3.5,3.6-6,7.2-5.6c1.6,0.2,3.1,1,4.1,2.3l19.9,25.6c1.4,1.9,2.1,4.2,1.9,6.6L665.5,316.7z"/>
	<path d="M299.2,480.4l-1.2-5.3c-6.4-28.1-28.2-47.6-53.1-47.6c-0.1,0-0.3,0-0.4,0c-24.3,0.2-45.6,14.9-51.8,35.7l-11.2-3.3
		c7.6-25.7,33.5-43.8,62.9-44.1c0.2,0,0.3,0,0.5,0c28.8,0,54.1,20.8,63.2,51.4c14.5-2.2,28.9-4.7,43.1-7.3
		c79.7-14.9,157.8-36.8,233.6-65.5l4.2,11c-76.4,28.9-155.3,51.1-235.6,66.1c-16,3-32.4,5.7-48.7,8.2L299.2,480.4z"/>
	<path d="M113.4,494.8c-16.3,0-38.2-0.2-50.1-0.5l-4.1-0.1l-1.3-3.9c-18.4-56.6-21-117.2-7.4-175.1l1-4.2l4.3-0.3
		c89.2-5.7,177.9-17.3,265.6-34.5c73.6-14.5,146.3-33.1,217.8-55.5l3.5,11.2c-72,22.6-145.1,41.2-219.1,55.8
		c-86.7,17.1-174.5,28.6-262.7,34.5c-11.6,53.2-9.3,108.6,6.9,160.7c15.2,0.3,40.2,0.5,54.9,0.4l0.1,11.7
		C120,494.8,116.8,494.8,113.4,494.8z"/>
	<path d="M114.5,312.1l-11.2-3.3c19.6-65.2,59.4-122.5,113.6-163.6c128.3-97,308.7-83.5,421.1,31.4l-8.4,8.2
		C521.3,74,347.5,61,224,154.5C171.7,194.1,133.4,249.3,114.5,312.1z"/>
	<path d="M409.6,719.5c-69.7,0.2-137.6-22.6-193-64.8c-54.3-41.3-94-98.8-113.5-164.1l11.2-3.3c18.8,63,57.1,118.3,109.4,158.1
		c135.5,102.7,328.6,76.1,431.2-59.4c40.5-53.5,62.5-118.8,62.5-185.9c0-11.5-0.6-23-1.9-34.5l11.6-1.3c1.3,11.9,2,23.8,2,35.8
		C729.1,576.5,586.1,719.5,409.6,719.5C409.6,719.5,409.6,719.5,409.6,719.5z"/>
	<path d="M631.6,414.9c-66.2,0-119.8-53.6-119.8-119.8s53.6-119.8,119.8-119.8S751.4,229,751.4,295.1l0,0
		C751.3,361.3,697.7,414.9,631.6,414.9z M631.6,187.1c-59.7,0-108.1,48.4-108.1,108.1s48.4,108.1,108.1,108.1
		c59.7,0,108.1-48.4,108.1-108.1C739.6,235.5,691.3,187.1,631.6,187.1L631.6,187.1z"/>
	<path d="M649.3,381.5c-47.1,0-85.3-39.9-85.3-89s38.3-89,85.3-89s85.3,39.9,85.3,89S696.4,381.5,649.3,381.5z M649.3,215.2
		c-40.6,0-73.6,34.7-73.6,77.3c0,42.6,33,77.3,73.6,77.3s73.6-34.7,73.6-77.3C723,249.8,689.9,215.2,649.3,215.2L649.3,215.2z"/>
	<path class="st16" d="M51,308.2"/>
	<path d="M278.9,631.8c-35,0.1-69.9-5.3-103.3-16l3.6-11.2c32.7,10.4,66.8,15.6,101,15.4c33-0.3,65.8-5,97.6-13.9
		c17.7-4.9,35.1-11.1,51.9-18.5l4.7,10.7c-17.4,7.7-35.3,14.1-53.5,19.1c-32.8,9.2-66.6,14-100.6,14.3
		C279.9,631.8,279.4,631.8,278.9,631.8z"/>
	<path d="M493.4,610.6c-10.3,0-20.6-0.7-30.9-2.2c-23-3.3-40.4-11.6-51.8-24.6c-3.4-3.9-12.5-14.3-12.2-28.7
		c0.3-6.9,2.4-13.5,6.2-19.3c54.8-84.7,172.7-138.9,177.7-141.1c2.9-1.3,6.4,0,7.7,2.9c1.3,2.9,0,6.4-2.9,7.7
		c-23,11-45.2,23.5-66.5,37.6c-33.2,21.8-78.6,56.6-106.2,99.3c-2.5,3.9-4,8.4-4.3,13.1c-0.2,10,6.7,17.9,9.4,20.9
		c9.5,10.8,24.5,17.8,44.6,20.7c40.8,5.7,82.4-1,119.4-19.1c28.4-13.8,45-29.6,45.1-29.8c23.2-22.4,39.9-50.4,49.7-83.2
		c0.9-3.1,4.2-4.9,7.3-3.9c3.1,0.9,4.9,4.2,3.9,7.3c0,0,0,0,0,0c-10.4,34.8-28.2,64.4-52.8,88.3
		C634.3,558.8,579.4,610.6,493.4,610.6z"/>
	<path class="st6" d="M747.7,340.3l-25.2-15.8c-33.9,14.5-67,30.8-99.2,48.8c0,0-36.7,20.6-150.7,97.5c50.2-2.6,100.5-5.1,150.7-7.7
		l8.3-39.3c17.2,1.2,32.2,12.1,38.7,28l75.5-15.2C751,404.9,751.6,372.4,747.7,340.3L747.7,340.3z"/>
	<path class="st8" d="M485.3,471.8c47.3-24.3,94.7-48.4,142.2-72.3c32.3-16.2,64.7-32.4,97.2-48.4c7.9,10.5,13.7,22.5,17.1,35.2
		c5.9,22.6,4.1,50.4,4.1,50.4l0,0c1.1-31.1,2.2-62.3,3.3-93.4c-8.6-5.2-17.2-10.4-25.8-15.6c-17.7,6.9-35.8,14.5-54.3,23
		c-65.8,30.3-128.1,67.7-185.6,111.6c-2.1,4.1-4.2,8.3-6.3,12.4L485.3,471.8z"/>
	<path d="M451.1,481.8l12.4-11c25.4-22.5,123.4-91.7,249.6-150.6c5.3-2.5,11.4-2.2,16.4,0.8l17.9,11.1c4.3,2.6,7.1,7,7.9,11.9
		c4.7,31.3,3.4,63.2-3.7,94l-0.7,3.2l-3.1,1c-24.9,8.3-50.7,13.5-76.9,15.5l-3.7,0.3l-1.8-3.3c-4.8-9-12.2-16.4-21.2-21.2
		c-2-1.1-4.1-2-6.3-2.8c-0.7,4.1-1.5,8.6-2.3,13.2c-1.3,7.2-2.5,14.4-3.5,19.8l-0.7,4.1l-4.1,0.7c-41.4,6.5-158.3,12.5-159.4,12.5
		L451.1,481.8z M720.6,330.3c-0.9,0-1.7,0.2-2.5,0.6c-108.3,50.6-195.4,108.6-233,137.6c33.1-1.9,103.4-6.2,136.1-10.8
		c0.8-4.7,1.8-10.1,2.7-15.6c1.2-7.2,2.5-14.3,3.4-19.6l1.1-6l6,1.3c5.3,1.2,10.3,3,15.1,5.5c9.9,5.3,18.2,13.1,24,22.6
		c22.9-2,45.5-6.5,67.3-13.6c6.2-28.4,7.2-57.7,2.8-86.4c-0.2-1.5-1.1-2.9-2.5-3.7L723.3,331C722.5,330.5,721.5,330.3,720.6,330.3z"
		/>
	<path d="M543.8,688c-9-2-17.5-5.8-24.9-11.3c-20-15-32-41.1-33-71.7l11.7-0.4c0.9,26.6,11.5,50.1,28.3,62.7
		c6,4.5,12.9,7.7,20.3,9.3L543.8,688z"/>
	<path d="M513,604.5l-11.5-2.2c3.8-21.2,1.9-43.1-5.6-63.4c-7.8-21.1-20.9-38.6-38-50.6l6.8-9.6C502.6,505.7,522,556.2,513,604.5z"
		/>
	<path d="M213.1,525.1c-37.9,0.1-74.6-13.6-103.1-38.7l-9.3-8.1l12.2-2c39.4-6.6,77.5-19.9,112.4-39.3c6.1-3.4,13.8-2.2,18.5,3.1
		c8.8,9.7,14.7,21.7,17.1,34.6c1.9,10.4,1.5,21.2-1.3,31.4c-2.3,8.6-9.4,15.1-18.2,16.6C232.1,524.3,222.6,525.1,213.1,525.1z
		 M127.5,485.5c11.6,8.5,24.4,15.3,38,20c23.8,8.1,49.2,10.1,73.9,5.7c4.3-0.8,7.8-3.9,8.9-8.2l0,0c2.3-8.6,2.7-17.5,1.1-26.2
		c-2-10.8-7-20.8-14.3-28.9c-1-1.1-2.7-1.4-4.1-0.6C198.7,465.2,163.8,478.1,127.5,485.5L127.5,485.5z"/>
	<path d="M483.3,248.8c-1.8,0-3.5-0.8-4.6-2.3c-35.4-46-89.8-75.5-149.5-81c-62.4-5.7-124.1,15.7-173.7,60.4c-2.4,2.2-6.1,2-8.3-0.4
		c-2.2-2.4-2-6.1,0.4-8.3c52-46.9,116.8-69.4,182.6-63.3c62.9,5.7,120.3,36.9,157.7,85.5c2,2.6,1.5,6.2-1.1,8.2
		C485.9,248.3,484.6,248.7,483.3,248.8L483.3,248.8z"/>
	<ellipse transform="matrix(0.3827 -0.9239 0.9239 0.3827 75.3334 884.3435)" class="st17" cx="699.4" cy="385.8" rx="13" ry="13"/>
	<path d="M699.4,404.7c-10.4,0-18.9-8.4-18.9-18.9c0-10.4,8.4-18.9,18.9-18.9c10.4,0,18.9,8.4,18.9,18.9c0,0,0,0,0,0
		C718.3,396.2,709.8,404.6,699.4,404.7z M699.4,378.6c-3.9,0-7.2,3.2-7.2,7.2c0,3.9,3.2,7.2,7.2,7.2s7.2-3.2,7.2-7.2l0,0
		C706.6,381.9,703.4,378.7,699.4,378.6z"/>
</g>
</svg>
