<?xml version="1.0" encoding="utf-8"?>
<!-- Generator: Adobe Illustrator 25.2.1, SVG Export Plug-In . SVG Version: 6.00 Build 0)  -->
<svg version="1.1" xmlns="http://www.w3.org/2000/svg" xmlns:xlink="http://www.w3.org/1999/xlink" x="0px" y="0px"
	 viewBox="0 0 800 800" style="enable-background:new 0 0 800 800;" xml:space="preserve">
<style type="text/css">
	.st0{fill:#E84243;}
	.st1{opacity:0.2;fill:#FFFFFF;}
	.st2{fill:#1D1E1D;}
	.st3{fill:#F7FCFE;}
	.st4{fill:#FFFFFF;}
	.st5{fill:#1C1D1C;}
	.st6{opacity:0.35;}
</style>
<g id="Background">
	<rect id="Background_Color" x="0" y="0.2" class="st0" width="800" height="800"/>
	<rect id="Opacity_Layer" x="0" y="0.2" class="st1" width="800" height="800"/>
</g>
<g id="Penguin">
	<g>
		<path class="st2" d="M770.2,383.5c-0.9-23.2-4.1-46.2-9.7-68.7C722.7,157.6,584.8,44.9,423.5,38.6c-8.3,0-16.6,0-25.2-0.2
			c-165.7,5.1-306.7,122.1-342.4,284c-0.4,1.7-1.2,3.2-2.4,4.4c-29.6,29-32.1,75.8-5.4,107.7c0.8,1.1,1.3,2.3,1.4,3.7
			c0.5,4.5,1,8.7,1.7,13.2c0,0.5,0.1,0.9,0.1,1.4c0.4,2.6,0.5,5.2,0.9,8c0.3,1.9,0.7,3.8,1,5.6c0.3,1.6,0.9,3,1.2,4.7
			c0,0.2,0,0.2,0,0.5c0.7,3.8,1.6,7.3,2.3,11C102.5,677,297.1,797.6,491.5,752C661.1,712.1,778.1,557.3,770.2,383.5L770.2,383.5z
			 M55.1,385.7c-3.6-4.1-3.6-9.3-3.4-14.3c0.3-6.7,1.4-13.1,3.6-19.2c2.8-8.2,9-13.3,16.3-17.3c0.7-0.3,1.6-0.3,2.4-0.1
			c4.1,0.7,7.3,3.8,8.5,7.8c1.5,5.4,2,10.8,1.7,16.3c0.1,5.5-0.8,10.7-2.4,15.8c-2.8,8.2-9.2,12.9-17.1,15.2
			C60.8,390.8,57.6,388.6,55.1,385.7L55.1,385.7z M69.9,457.6l0-0.5c13.2-4.8,26.5-9.8,39.9-14.6c23.7-8.5,47.6-16.7,71.7-24.1
			c2.8-1.1,5.8-1.5,8.9-1.2c2.1,0.1,4.1,1.2,5.4,2.8c4.4,6.1,4.2,14.7-0.7,20.7c-2.5,2.3-5.5,3.6-8.8,3.8
			c-13.2,1.5-26.6,2.7-39.8,4.2c-12.7,1.4-25.2,2.9-37.9,4.3c-12.5,1.4-24.7,2.9-37.2,4.3C70.8,457.6,70.4,457.6,69.9,457.6
			L69.9,457.6z M505,731.1c-3.5,1.2-7.2,1.8-11,2.5c-15.4,3.5-31.2,6.5-46.6,10.8c-4.7,1.2-9.4,1.7-14.1,1.5c-5,0.1-9.7-0.1-16.1,0
			c-8.5,0-18.3,0.1-28.3-0.7c-45.5-3.3-89.5-13.1-130.5-34c-32.9-16.1-63.3-37.4-89.9-62.6c-27.1-25.9-49.7-56.2-66.6-89.6
			c-13.1-26-23.3-53.7-29.9-82c-1.2-4.9,0.1-6.4,5-7.2c16.5-1.9,33-4,49.5-5.9c15.1-1.8,30.2-3.4,45.2-5.2
			c6.1-0.6,12.3-1.2,18.4-1.8c8.3-0.5,15.3-5.6,18.7-13.2c4.2-8.5,4.4-18.5,0.6-27.1c-2.7-6-8-10.7-14.2-12.5
			c-5.8-1.8-6.4-3.2-5.5-9.2c3.8-29.2-4.8-53.8-27.9-72.9c-21.2-18.5-50.7-23.9-76.9-14.1c-3,0.9-5.8,2-8.8,3.4
			c-1.4,0.6-1.9,0.1-2-1.3c0-0.7,0.2-1.4,0.3-2.2c5.4-13.8,10.7-27.7,16.3-41.5c3.5-9.5,10.1-17.4,18.8-22.7
			c15.6-9.7,31.1-19.6,48-27c12.9-5.7,26.5-9.6,40.6-11.6c6.3-1.1,12.7-2.4,19-3.2c4.2-0.7,8.5-1,12.7-1.2c13-0.8,26-1,38.9-0.3
			c29.5,1.4,58.5,7.1,86.4,17.1c14.3,5.1,25,14.4,34,26.3c12.6,17.1,22.9,35.9,30.5,55.6c11.3,27.8,21.5,55.9,30,84.8
			c3.3,11.2,5.8,22.7,7.9,34.2c1.1,5.9,0,12.1-3.3,17.3c-19.4,33.8-44.8,62.6-74.4,87.8c-13.3,11.4-26.4,23.1-37.2,37
			c-14.2,17.4-24.4,37.9-30.2,59.6c-1,3.6-1.7,7.2-2,10.8c-0.6,6.4,2.6,12.7,8.3,16.1c7.4,4.6,15.6,7.9,24.3,9.7
			c10.6,2.2,21.3,3.5,32,3.8c6.2,0.4,12.4,0.7,18.6,1.1c13.3,0.9,26.2-1.8,39.1-4.2c12.5-1.9,24.6-5,36.5-9.2c2.6-0.9,4,0,4.2,2.6
			c0.6,18.2,7.7,34.2,17.1,49.5c4.4,7.1,9.4,14.2,14.3,21c1,1.4,1.8,2.7,2.6,4.1C508.6,728.3,508,729.9,505,731.1z M755,407.1
			c-0.6,13.8-1.7,27.4-3.8,41c-3.2,22.5-8.8,44.4-16.4,65.7c-15.5,43.6-39.5,83.6-71,117.7c-17.4,19-37,36.1-58.2,50.8
			c-15.3,10.6-31.6,19.8-48.2,27.9c-11.1,5.4-22.5,9.4-33.8,13.8c-2.5,1.1-5.7,0.1-7-2.7l0,0c-6.3-10.3-13.7-19.8-20-29.9
			c-6.5-10.5-10.8-22.1-12.2-34.4c-0.5-3.8-1.4-7.3-2.1-11c-0.6-2.6,0-3.8,2.6-4.7c11.4-3.3,20.8-10.2,29-18.5
			c5.8-5.8,11.7-11.6,17.7-17.4c1.6-1.5,3.4-3,5.2-4.6c1.1-0.8,1.5-2.5,0.7-3.8l-0.2-0.2c-0.8-1.1-1.5-2-2.3-3.2
			c-1.6-2.3-2.5-2.2-4.8-0.7c-20.7,14.5-41.5,29-62,43.7c-5.9,4.4-12.9,5.7-20,7.3c-8.4,1.9-16.9,3.6-25.3,5
			c-13.1,2.4-26.6,3.2-39.9,2.3c-12.4-0.7-24.6-2.4-36.8-4.3c-6.5-1.3-12.8-3.3-18.9-6.5c-3.4-1.5-6-4.9-6.4-8.6
			c1-6.9,2.5-13.9,5-20.4c6.1-17.2,16.2-32.2,27.4-46.6c11.1-13.7,23.9-26,37.7-37c23.3-19.1,43.6-41.9,59.7-67.2
			c10.9-17,22-34,32.9-51c2.2-3.4,1.9-4.9-1.1-6.8c-3.2-2.2-5.5-1.6-7.5,1.4c-2.2,3.2-4.4,6.4-6.8,10.4c-1.2-5.1-2.5-9.6-3.4-14.3
			c-5.4-23.2-13.3-45.5-21.2-67.8c-7.3-20.2-14.7-40.4-24.3-59.8c-7.5-15-15.9-29.4-27.6-41.8c-10.6-11.2-23.7-20-38.2-25.5
			c-13.3-4.7-27-8.2-41.2-10.4c-21.3-3.7-42.8-5.6-64.4-5.8c-31.1-0.6-62.1,5-91.1,16.6c-14.1,5.6-27.7,13-40.5,21.5
			c-0.2,0.3-0.5,0.3-0.9,0.5c-1.6,1-3.7,2.3-5.1,1.2c-1-0.7,1-2.7,1.7-3.9c12.3-21.3,27-41.4,43.8-59.4c18.9-21,40.4-39.6,63.9-54.9
			c35.7-23.2,75.2-39.9,116.7-49.2c13.3-2.9,26.7-5.1,40.2-6.4c17.4-1.7,35-2.3,52.3-1.4c18.3,0.6,36.5,3.3,54.1,8.5
			c8.1,0.5,16.3,2.1,24.2,4.8c22.9,7,45,16.1,66.3,27.5c19.6,10.5,38.3,22.9,55.3,37.1c51.8,42.8,90.2,99.8,110.5,163.9
			c5.5,17.5,9.6,35.3,12.1,53.1c1.2,8.7,2.2,17.7,2.7,26.4C755.1,385.8,755.5,396.4,755,407.1z"/>
		<path class="st3" d="M417.1,745.9c-8.5,0-18.3,0.1-28.3-0.7c-45.5-3.3-89.5-13.1-130.5-34c-32.9-16.1-63.3-37.4-89.9-62.6
			c-27.1-25.9-49.7-56.2-66.6-89.6c-13.1-26-23.3-53.7-29.9-82c-1.2-4.9,0.1-6.4,5-7.2c16.5-1.9,33-4,49.5-5.9
			c15.1-1.8,30.2-3.4,45.2-5.2c6.1-0.6,12.3-1.2,18.4-1.8c8.3-0.5,15.3-5.6,18.7-13.2c4.2-8.5,4.4-18.5,0.6-27.1
			c-2.7-6-8-10.7-14.2-12.5c-5.8-1.8-6.4-3.2-5.5-9.2c3.8-29.2-4.8-53.8-27.9-72.9c-21.2-18.5-50.7-23.9-76.9-14.1
			c-3,0.9-5.8,2-8.8,3.4c-1.4,0.6-1.9,0.1-2-1.3c0-0.7,0.2-1.4,0.3-2.2c5.4-13.8,10.7-27.7,16.3-41.5c3.5-9.5,10.1-17.4,18.8-22.7
			c15.6-9.7,31.1-19.6,48-27c12.9-5.7,26.5-9.6,40.6-11.6c6.3-1.1,12.7-2.4,19-3.2c4.2-0.7,8.5-1,12.7-1.2c13-0.8,26-1,38.9-0.3
			c29.5,1.4,58.5,7.1,86.4,17.1c14.3,5.1,25,14.4,34,26.3c12.6,17.1,22.9,35.9,30.5,55.6c11.3,27.8,21.5,55.9,30,84.8
			c3.3,11.2,5.8,22.7,7.9,34.2c1.1,5.9,0,12.1-3.3,17.3c-19.4,33.8-44.8,62.6-74.4,87.8c-13.3,11.4-26.4,23.1-37.2,37
			c-14.2,17.4-24.4,37.9-30.2,59.6c-1,3.6-1.7,7.2-2,10.8c-0.6,6.4,2.6,12.7,8.3,16.1c7.4,4.6,15.6,7.9,24.3,9.7
			c10.6,2.2,21.3,3.5,32,3.8c6.2,0.4,12.4,0.7,18.6,1.1c13.3,0.9,26.2-1.8,39.1-4.2c12.5-1.9,24.6-5,36.5-9.2c2.6-0.9,4,0,4.2,2.6
			c0.6,18.2,7.7,34.2,17.1,49.5c4.4,7.1,9.4,14.2,14.3,21c1,1.4,1.8,2.7,2.6,4.1c1.3,2.8,0.7,4.5-2.3,5.6c-3.5,1.2-7.2,1.8-11,2.5
			c-15.4,3.5-31.2,6.5-46.6,10.8c-4.7,1.2-9.4,1.7-14.1,1.5C428.3,745.9,423.6,746,417.1,745.9z M321,272.6
			c-44.5,0.7-80.4,37.4-79.7,82.2c0.7,44.5,37.4,80.4,82.2,79.7c44.5-0.7,80.4-37.4,79.7-82.2l0,0c0-0.2,0-0.5,0-0.7
			C402,307.3,365.3,272,321,272.6z"/>
		<path class="st4" d="M84.1,358.6c0.1,5.4-0.8,10.7-2.4,15.8c-2.8,8.2-9.2,12.9-17.1,15.2c-3.7,1.2-6.9-1-9.5-4
			c-3.6-4.1-3.6-9.3-3.4-14.3c0.3-6.7,1.4-13.1,3.6-19.2c2.8-8.2,9-13.3,16.3-17.3c0.7-0.3,1.6-0.3,2.4-0.1c4.1,0.7,7.3,3.8,8.5,7.8
			C83.9,347.7,84.5,353.2,84.1,358.6z"/>
		<g id="Color_1">
			<g id="Color_1-2">
				<path class="st0" d="M320.9,631.7c1-6.9,2.5-13.9,5-20.4C332,594,342,579,353.3,564.6c11.1-13.7,23.9-26,37.7-37
					c23.3-19.1,43.6-41.9,59.7-67.2c10.9-17,22-34,32.9-51c2.2-3.4,1.9-4.9-1.1-6.8c-3.2-2.2-5.5-1.6-7.5,1.4
					c-2.2,3.2-4.4,6.4-6.8,10.4c-1.2-5.1-2.5-9.6-3.4-14.3c-5.4-23.2-13.3-45.5-21.2-67.8c-7.3-20.2-14.7-40.4-24.3-59.8
					c-7.5-15-15.9-29.4-27.6-41.8c-10.6-11.2-23.7-20-38.2-25.5c-13.3-4.7-27-8.2-41.2-10.4c-21.3-3.7-42.8-5.6-64.4-5.8
					c-31.1-0.6-62.1,5-91.1,16.6c-14.1,5.6-27.7,13-40.5,21.5c-0.2,0.3-0.5,0.3-0.9,0.5c-1.6,1-3.7,2.3-5.1,1.2
					c-1-0.7,1-2.7,1.7-3.9c12.3-21.1,27-41.2,43.8-59.2c18.9-21,40.4-39.6,63.9-54.9c35.7-23.2,75.2-39.9,116.7-49.2
					c13.3-2.9,26.7-5.1,40.2-6.4c17.4-1.7,35-2.3,52.3-1.4c18.3,0.6,36.5,3.3,54.1,8.5c0.3,0.9,1.3,1.1,2,1.8
					c9.4,6.1,18.5,12.2,27.4,18.6c8.4,5.9,16.6,12.1,24.1,19c7.5,6.4,14.5,13.6,21.4,20.8c4.1,4.5,7.9,8.8,11.7,13.3
					c9.7,12.2,18.8,25,26.4,38.6c9.5,16.5,17.6,34.1,23.9,52.2c7.1,19.7,12,39.9,14.9,60.6c1.6,10.6,2.6,21,3,31.6
					c0.5,13,0.1,26.1-0.8,39.2c-0.8,10-1.9,19.8-3.7,29.6c-2.9,16.3-6.7,32.2-11.9,47.9c-13.5,40.9-35.6,78.2-64.8,109.8
					c-6.9,7.5-14.1,14.6-21.8,21.4c-10.8,9.6-22.7,18.4-34.8,26.2c-18.5,12-38.6,21.4-59.5,28.3c-15.4,4.9-30.8,8.7-46.8,10.8
					c-10.1,1.3-20.3,2.4-30.4,2.5c-10.4,0.4-20.9-0.2-31.4-1.3C328.1,632.9,324.5,632.4,320.9,631.7z M520.5,383.2
					c3.6,0,7.1,0.3,10.9,0.1c4.5,0,8.6-2.2,11.5-5.6c9-13.1,17.9-26.2,26.9-39.3c2.9-3.7,2.8-8.9,0-12.6c-2.3-3.7-4.7-7.3-7-11
					c-1.3-2.3-2.9-4.6-4.7-6.6c-1.5-2-4.4-2.4-6.5-1c-0.5,0.3-0.7,0.8-1.1,1c-0.7,0.8-1.1,1.5-1.8,2.2
					c-8.7,13.1-17.7,26.4-26.4,39.5c-5.9,8.6-11.6,17.3-17.2,25.9c-2.2,3.2-1.4,5.3,2.3,6.5c1,0.4,1.9,0.4,2.9,0.5
					C513.6,383.1,516.9,383.2,520.5,383.2z M574.5,383.7c5.2-0.3,11.7,0.5,18-0.3c4.5-0.7,6-3.4,3.6-7.3c-5.8-9.4-11.3-18.6-17-27.9
					c-2.6-4.4-7.1-4.3-9.7-0.1c-5.9,8.9-11.8,18-17.4,27.1c-3,4.9-0.5,7.4,4.3,8.3c0.5,0,1.2,0.2,1.7,0.1
					C562.9,383.6,568.1,383.5,574.5,383.7L574.5,383.7z"/>
				<path class="st0" d="M69.9,457.2c13.2-4.8,26.5-9.8,39.9-14.6c23.7-8.5,47.6-16.7,71.7-24.1c2.8-1.1,5.8-1.5,8.9-1.2
					c2.1,0.1,4.1,1.2,5.4,2.8c4.4,6.1,4.2,14.7-0.7,20.7c-2.5,2.3-5.5,3.6-8.8,3.8c-13.2,1.5-26.6,2.7-39.8,4.2
					c-12.7,1.4-25.2,2.9-37.9,4.3c-12.5,1.4-24.7,2.9-37.2,4.3c-0.5,0-0.9,0.1-1.4,0.1L69.9,457.2z"/>
			</g>
			<g id="Color_2">
				<path class="st0" d="M320.9,631.7c3.6,0.7,7.2,1.2,11,1.5c10.5,1.1,21,1.4,31.4,1.3c10.2-0.4,20.3-1.2,30.4-2.5
					c16-2.3,31.7-5.9,46.8-10.8c20.9-6.9,41-16.4,59.5-28.3c12.4-7.8,23.9-16.8,34.8-26.2c7.7-6.6,14.8-13.9,21.8-21.4
					c29.2-31.6,51.3-68.9,64.8-109.8c5.3-15.7,9.1-31.6,11.9-47.9c1.8-9.8,2.9-19.6,3.7-29.6c1.1-13.1,1.3-26.2,0.8-39.2
					c-0.4-10.6-1.5-21.3-3-31.6c-2.9-20.7-7.8-41-14.9-60.6c-6.3-18.1-14.4-35.5-23.9-52.2c-7.9-13.5-16.7-26.3-26.4-38.6
					c-3.8-4.5-7.6-9-11.7-13.3c-6.6-7.4-13.9-14.4-21.4-20.8c-7.7-6.7-15.7-13.1-24.1-19c-9.1-6.3-18.3-12.5-27.4-18.6
					c-0.7-0.4-1.7-0.8-2-1.8c8.1,0.5,16.3,2.1,24.2,4.8c22.9,7,45,16.1,66.3,27.5c19.6,10.5,38.3,22.9,55.3,37.1
					c51.8,42.8,90.2,99.8,110.5,163.9c5.5,17.5,9.6,35.3,12.1,53.1c1.2,8.7,2.2,17.7,2.7,26.4c0.9,10.6,1,21.5,0.7,32.2
					c-0.6,13.8-1.7,27.4-3.8,41c-3.2,22.5-8.8,44.4-16.4,65.7c-15.5,43.6-39.5,83.6-71,117.7c-17.4,19-37,36.1-58.2,50.8
					c-15.3,10.6-31.6,19.8-48.2,27.9c-11.1,5.4-22.5,9.4-33.8,13.8c-2.5,1.1-5.7,0.1-7-2.7l0,0c-6.3-10.3-13.7-19.8-20-29.9
					c-6.5-10.5-10.8-22.1-12.2-34.4c-0.5-3.8-1.4-7.3-2.1-11c-0.6-2.6,0-3.8,2.6-4.7c11.4-3.3,20.8-10.2,29-18.5
					c5.8-5.8,11.7-11.6,17.7-17.4c1.6-1.5,3.4-3,5.2-4.6c1.1-0.8,1.5-2.5,0.7-3.8l-0.3-0.2c-0.8-1.1-1.5-2-2.3-3.2
					c-1.6-2.3-2.5-2.2-4.8-0.7c-20.7,14.5-41.5,29-62,43.7c-5.9,4.4-12.9,5.7-20,7.3c-8.4,1.9-16.9,3.6-25.3,5
					c-13.1,2.4-26.6,3.2-39.9,2.3c-12.4-0.7-24.6-2.4-36.8-4.3c-6.5-1.3-12.8-3.3-18.9-6.5C323.7,638.9,321.4,635.4,320.9,631.7z"/>
				<path class="st0" d="M520.5,383.2c-3.6,0-7.1-0.1-10.7-0.1c-0.9,0.1-1.9-0.1-2.9-0.5c-3.6-1.2-4.2-3.5-2.3-6.5
					c5.7-8.6,11.6-17.3,17.2-25.9c8.7-13.1,17.7-26.4,26.4-39.5c0.4-0.7,1.1-1.5,1.8-2.2c1.3-2,4.4-2.6,6.3-1.3
					c0.5,0.2,0.8,0.7,1,1.1c1.8,2,3.3,4.3,4.7,6.6c2.3,3.7,4.7,7.3,7,11c2.8,3.6,2.9,8.8,0,12.6c-9,13.1-17.7,26.2-26.9,39.3
					c-2.6,3.5-7,5.6-11.5,5.6C527.8,383.5,524.2,383.2,520.5,383.2z"/>
				<path class="st0" d="M574.5,383.7c-6.4-0.1-11.6,0-16.8,0c-0.5,0-1.2,0.1-1.7-0.1c-4.6-0.9-7.3-3.6-4.3-8.3
					c5.6-9.1,11.5-18,17.4-27.1c2.8-4.2,7.1-4.2,9.7,0.1c5.7,9.2,11.5,18.5,17,27.9c2.4,3.9,0.9,6.6-3.6,7.3
					C586.2,384.2,579.7,383.4,574.5,383.7z"/>
			</g>
		</g>
		<path class="st5" d="M321,272.6c44.5-0.7,81.5,34.9,82.2,79.7c0.7,44.8-34.9,81.5-79.7,82.2c-44.8,0.7-81.5-34.9-82.2-79.7
			c0-0.2,0-0.2,0-0.5C240.9,310,276.5,273.3,321,272.6z M306.7,328c0.2-4.8-0.1-9.5-1.3-14.2c-1.3-6.1-7.4-9.8-13.5-8.5l0,0
			c-0.2,0-0.5,0-0.9,0.3c-9.1,2.2-16.6,8.3-20.4,16.8c-3.8,8.8-5.3,18.3-4.3,28c0.4,6.9,6.2,12.4,13.3,12c0.9-0.1,1.9-0.1,2.8-0.4
			c4.4-1,8.9-2.6,13-5c4.4-2.6,7.7-6.6,9.1-11.4C306.2,339.9,306.8,333.9,306.7,328L306.7,328z"/>
		<path class="st4" d="M306.7,328c0.1,5.9-0.5,12.1-2.3,17.7c-1.6,4.8-4.9,8.8-9.1,11.4c-3.9,2.4-8.3,4-13,5
			c-6.8,1.8-13.6-2.1-15.5-8.8c-0.3-0.9-0.3-1.9-0.4-2.8c-1-9.4,0.5-19.2,4.3-28c3.8-8.5,11.2-14.6,20.4-16.8
			c6.1-1.8,12.2,1.4,14.2,7.5l0,0c0,0.2,0.3,0.5,0.3,0.9C306.4,318.5,306.9,323.2,306.7,328z"/>
		<g id="Color_2-2" class="st6">
			<path d="M320.9,631.7c3.6,0.7,7.2,1.2,11,1.5c10.5,1.1,21,1.4,31.4,1.3c10.2-0.4,20.3-1.2,30.4-2.5c16-2.3,31.7-5.9,46.8-10.8
				c20.9-6.9,41-16.4,59.5-28.3c12.4-7.8,23.9-16.8,34.8-26.2c7.7-6.6,14.8-13.9,21.8-21.4c29.2-31.6,51.3-68.9,64.8-109.8
				c5.3-15.7,9.1-31.6,11.9-47.9c1.8-9.8,2.9-19.6,3.7-29.6c1.1-13.1,1.3-26.2,0.8-39.2c-0.4-10.6-1.5-21.3-3-31.6
				c-2.9-20.7-7.8-41-14.9-60.6c-6.3-18.1-14.4-35.5-23.9-52.2c-7.9-13.5-16.7-26.3-26.4-38.6c-3.8-4.5-7.6-9-11.7-13.3
				c-6.6-7.4-13.9-14.4-21.4-20.8c-7.7-6.7-15.7-13.1-24.1-19c-9.1-6.3-18.3-12.5-27.4-18.6c-0.7-0.4-1.7-0.8-2-1.8
				c8.1,0.5,16.3,2.1,24.2,4.8c22.9,7,45,16.1,66.3,27.5c19.6,10.5,38.3,22.9,55.3,37.1c51.8,42.8,90.2,99.8,110.5,163.9
				c5.5,17.5,9.6,35.3,12.1,53.1c1.2,8.7,2.2,17.7,2.7,26.4c0.9,10.6,1,21.5,0.7,32.2c-0.6,13.8-1.7,27.4-3.8,41
				c-3.2,22.5-8.8,44.4-16.4,65.7c-15.5,43.6-39.5,83.6-71,117.7c-17.4,19-37,36.1-58.2,50.8c-15.3,10.6-31.6,19.8-48.2,27.9
				c-11.1,5.4-22.5,9.4-33.8,13.8c-2.5,1.1-5.7,0.1-7-2.7l0,0c-6.3-10.3-13.7-19.8-20-29.9c-6.5-10.5-10.8-22.1-12.2-34.4
				c-0.5-3.8-1.4-7.3-2.1-11c-0.6-2.6,0-3.8,2.6-4.7c11.4-3.3,20.8-10.2,29-18.5c5.8-5.8,11.7-11.6,17.7-17.4c1.6-1.5,3.4-3,5.2-4.6
				c1.1-0.8,1.5-2.5,0.7-3.8l-0.3-0.2c-0.8-1.1-1.5-2-2.3-3.2c-1.6-2.3-2.5-2.2-4.8-0.7c-20.7,14.5-41.5,29-62,43.7
				c-5.9,4.4-12.9,5.7-20,7.3c-8.4,1.9-16.9,3.6-25.3,5c-13.1,2.4-26.6,3.2-39.9,2.3c-12.4-0.7-24.6-2.4-36.8-4.3
				c-6.5-1.3-12.8-3.3-18.9-6.5C323.7,638.9,321.4,635.4,320.9,631.7z"/>
			<path d="M520.5,383.2c-3.6,0-7.1-0.1-10.7-0.1c-0.9,0.1-1.9-0.1-2.9-0.5c-3.6-1.2-4.2-3.5-2.3-6.5c5.7-8.6,11.6-17.3,17.2-25.9
				c8.7-13.1,17.7-26.4,26.4-39.5c0.4-0.7,1.1-1.5,1.8-2.2c1.3-2,4.4-2.6,6.3-1.3c0.5,0.2,0.8,0.7,1,1.1c1.8,2,3.3,4.3,4.7,6.6
				c2.3,3.7,4.7,7.3,7,11c2.8,3.6,2.9,8.8,0,12.6c-9,13.1-17.7,26.2-26.9,39.3c-2.6,3.5-7,5.6-11.5,5.6
				C527.8,383.5,524.2,383.2,520.5,383.2z"/>
			<path d="M574.5,383.7c-6.4-0.1-11.6,0-16.8,0c-0.5,0-1.2,0.1-1.7-0.1c-4.6-0.9-7.3-3.6-4.3-8.3c5.6-9.1,11.5-18,17.4-27.1
				c2.8-4.2,7.1-4.2,9.7,0.1c5.7,9.2,11.5,18.5,17,27.9c2.4,3.9,0.9,6.6-3.6,7.3C586.2,384.2,579.7,383.4,574.5,383.7z"/>
		</g>
	</g>
</g>
</svg>
