<?xml version="1.0" encoding="utf-8"?>
<!-- Generator: Adobe Illustrator 25.2.1, SVG Export Plug-In . SVG Version: 6.00 Build 0)  -->
<svg version="1.1" xmlns="http://www.w3.org/2000/svg" xmlns:xlink="http://www.w3.org/1999/xlink" x="0px" y="0px"
	 viewBox="0 0 800 800" style="enable-background:new 0 0 800 800;" xml:space="preserve">
<style type="text/css">
	.st0{fill:#FC2736;}
	.st1{opacity:0.2;fill:#FFFFFF;}
	.st2{fill:#171717;}
	.st3{fill:#3B3B3B;}
	.st4{fill:none;stroke:#3B3B3B;stroke-width:11.5861;stroke-miterlimit:10;}
	.st5{fill:#FFFFFF;}
	.st6{fill:#C7D9E0;}
	.st7{fill:#0C0C0C;}
	.st8{fill:#1C1C1C;}
	.st9{fill:#6F6F6F;}
</style>
<g id="Background">
	<rect id="Background_Color" x="0" y="0.2" class="st0" width="800" height="800"/>
	<rect id="Opacity_Layer" x="0" y="0.2" class="st1" width="800" height="800"/>
</g>
<g id="Penguin">
	<circle cx="428.3" cy="398.1" r="349.4"/>
	<path class="st2" d="M669.9,633.7c-41.8,41.1-92.5,70.3-147.8,85.7l0.3-0.3c-4.9-5.4-9.7-11.2-14.1-17.2
		c-12.2-16.8-23.4-42.4-33.2-76.1c30.2-12.9,61.2-29.6,88.3-45.6c3.1-1.9,4.2-5.9,2.3-9c-1.9-3.1-5.9-4.2-9-2.3
		c-46.3,27.4-81.9,44-109.2,53.7c-8.5-53.8-37.9-76.7-49.2-83.6c8.7-11.1,18.7-23,30.1-35.5c40.3-44.3,83.8-81.8,84.2-82.2
		c0,0,0.1-0.1,0.1-0.1c11.6,7,24.4,16.9,36.2,30.8c1.3,1.5,3.1,2.3,5,2.3c0.4,0,0.8,0,1.2-0.1c1.6-0.3,40.8-7.7,87.6-27.9
		c38.9-16.8,89.6-45.7,121.5-90.7c3.6,19.7,5.5,39.9,5.5,60.4C770,485.8,734.5,570.2,669.9,633.7z"/>
	<path class="st2" d="M505.9,402.3c38.2-6.1,75.2-19.1,108.3-38.2c60.9-35,97.6-82.9,118.9-120.5c12.1,23.4,21.3,48.1,27.6,73.8
		c-29.1,48.5-82.4,79.2-122.6,96.6c-37.5,16.2-70.7,24.1-81.4,26.4C539.4,421.2,520.7,409.4,505.9,402.3z"/>
	<path class="st2" d="M480.1,418.1c0.3-1.9,0.6-3.7,0.8-5.5c0.3-1.8,0.5-3.7,0.7-5.5c4.4,1.3,11,3.6,18.8,7.4
		c-4.5,3.9-12.7,11.3-23.2,21.2C478.4,429.8,479.2,423.9,480.1,418.1z"/>
	<g>
		<path class="st3" d="M742.4,249c-11.3,22.3-25.3,43.3-41.6,62.2c-16.3,19-35.1,35.9-56,49.9c-10.4,7-21.4,13.2-32.8,18.6
			c-5.7,2.7-11.5,5.2-17.3,7.4c-5.9,2.2-11.6,4.3-17.5,6.3c-5.9,2-11.8,4-17.7,5.8c-6,1.8-12.1,3.4-18.2,4.8
			c-6.2,1.4-12.4,2.5-18.8,3.1c-6.4,0.7-12.8,0.9-19.2,0.7l-16.5-0.5l13.2-9.9l0,0l0.3-0.2l0.2-0.1l0.3-0.2c0.2-0.1,0.3-0.1,0.4-0.2
			c0.3-0.1,0.5-0.2,0.7-0.3c0.2-0.1,0.4-0.1,0.6-0.2c0.2-0.1,0.4-0.1,0.6-0.1c0.4-0.1,0.7-0.1,1-0.2c0.3,0,0.6-0.1,0.9-0.1
			c1.2,0,2.2,0.1,3.1,0.3c1.8,0.4,3.3,1,4.7,1.6c2.8,1.3,5.1,2.8,7.3,4.4c4.3,3.2,8.1,6.8,11.7,10.4c7.2,7.3,13.5,15.1,19.6,23.1
			l-4.3,3.6c-6.8-7.2-13.7-14.2-21.1-20.4c-3.7-3.1-7.5-6-11.4-8.3c-1.9-1.2-3.9-2.2-5.8-2.8c-0.9-0.3-1.8-0.5-2.4-0.6
			c-0.3,0-0.6,0-0.6,0c0,0,0,0,0,0c0,0,0,0,0.1,0l0.1,0l0.2,0c0.1,0,0.1,0,0.3-0.1l0.2-0.1l0.2-0.1l0.1-0.1l0.3-0.2l0,0l-3.3-10.4
			c23.5,0.9,46.8-5.9,69.8-13.8c5.7-2,11.5-4.1,17.1-6.2c5.6-2.2,11.1-4.5,16.5-7.1c10.8-5.1,21.3-11.1,31.3-17.7
			c20-13.3,38-29.6,53.7-47.8c15.7-18.2,29.2-38.4,40.1-59.9L742.4,249z"/>
	</g>
	<path class="st4" d="M515.6,421.3c1.7,1.3-60.9,36.8-114.6,119.7c0,0,21.3,14.2,26.4,41.6"/>
	<path class="st5" d="M105.4,285.6c2-0.6,4-1,6-1.4c0.6-0.1,1.2-0.3,1.8-0.4l1.8-0.2c0.6-0.1,1.2-0.2,1.8-0.3c0.6,0,1.2-0.1,1.8-0.2
		c0.6,0,1.2-0.2,1.9-0.2c0.6,0,1.2,0,1.9-0.1c1.3-0.1,2.5-0.1,3.8-0.1c5.2,0,10.6,0.7,16.9,1.6c-3.3-5.5-8.7-9.5-14.8-11.8
		c-0.8-0.3-1.6-0.5-2.3-0.8c-0.8-0.2-1.6-0.4-2.4-0.5c-0.8-0.2-1.6-0.3-2.4-0.5c-0.8-0.1-1.6-0.2-2.5-0.2c-0.8-0.1-1.7-0.1-2.5-0.1
		c-0.8,0-1.7,0.1-2.5,0.1l-2.5,0.2c-0.1,0-0.2,0-0.3,0.1c3.8-9.3,8-18.4,12.6-27.3c16.6-18.9,35.1-34.7,55.1-47
		c22-13.5,45.3-22.4,69.1-26.4c24.3-4.1,49.8-2.9,73.8,3.5c22.3,5.9,43.4,16.1,62.9,30.2c14.4,10.5,27.6,22.9,39.3,36.9l1,1.2
		c3.5,4.2,7.1,8.5,10.1,12.9L99.4,304.4C101.2,298.1,103.2,291.8,105.4,285.6z"/>
	<path class="st5" d="M186.7,633.7c-49-48.3-81.2-108.6-93.9-174.2l25.3-3.3c16.4,10.5,35.1,15.9,55.5,15.9c8.6,0,17.5-1,26.7-2.9
		c26.8-5.6,46.1-17.5,46.9-18c1.8-1.1,3-3,3.1-5.2c2.2-33.2-19.5-54.1-20.4-54.9c-2.6-2.5-6.8-2.4-9.3,0.3c-3.4,3.6-6.9,6.9-10.4,10
		c2.5-11.5,8-27.7,17.9-31.9c0.2-0.1,0.7-0.3,1.8,0.2c10.4,4.7,25.5,38.3,33,60.7c1,3,4,4.9,7.2,4.4l176.5-24.3
		c3.1-0.4,5.4-2.9,5.7-6l5.5-74.2c0.5-0.1,1.1-0.3,1.6-0.5l2.5-1.2c1.4,5.9,2.7,11.8,3.7,17.5c4.5,24.6,5.3,45.7,2.4,64.4
		c-0.3,1.9-0.6,3.7-0.8,5.6c-1.3,8.7-2.6,17.7-4.6,26c-0.1,0.6-0.6,2.5-1.2,4.7c-0.6,2.2-1,4-1.4,5.4c-12.8,12.5-27.1,27-41.1,42.3
		c-24.2,26.5-42.6,50.3-54.7,70.7c-16.2,27.1-21.5,48.1-16.1,64.1l0.1,0.4c0.4,1,4.5,10.2,19.2,15.2c6.6,2.3,14.1,3.3,22.3,3.3
		c21.1,0,46.6-6.9,73.3-17.4c10.3,35,21.7,60.8,34.8,78.8c3.3,4.6,6.9,9,10.5,13.3c-25.9,6.1-52.7,9.2-80,9.2
		C337,732.2,251.2,697.3,186.7,633.7z"/>
	<path class="st6" d="M503.1,716.6c-3.8-5.8-6.6-12.2-10.2-18c-3.4-5.5-7.1-10.8-9-17c-28.3,5.6-57.8,8.5-88,8.5
		c-81.7,0-157.5-21.4-220.2-57.9c62.5,67.8,151.9,110.2,251.2,110.2c30.2,0,59.5-3.9,87.4-11.3C510.1,726.6,506.4,721.7,503.1,716.6
		z"/>
	<path class="st7" d="M493.9,679.5c1.9,5.6,5.6,10.4,8.6,15.4c3,4.9,5.3,10.2,8.4,15.1c4,6.4,8.7,12.5,14.1,18
		c115.7-34.8,205.7-129.3,234.1-247.9C713.4,577.8,615,652.8,493.9,679.5z"/>
	<path d="M140.1,436.2l-70.6,20.2c-3.5,1-7.1-1-8.1-4.5L27.2,332.2c-1-3.5,1-7.1,4.5-8.1l70.6-20.2c3.5-1,7.1,1,8.1,4.5l34.2,119.7
		C145.6,431.6,143.6,435.2,140.1,436.2z"/>
	<path class="st8" d="M48,389.5c-7.8-20-14.9-40.5-21-61.2l422.3-62.1l-9.8,132.1l-165.9,22.9c-5.8-16.2-21.3-55.7-38.3-63.4
		c-4.2-1.9-8.5-2-12.4-0.4c-9.8,4.1-17.4,14.2-22.6,29.9c-3.6,10.9-4.7,20.7-4.7,21.1c0,0.3,0,0.6,0,0.9l0.1,3.3
		c-14.6,9.9-30.6,16.8-47.9,20.6c-20.8,4.6-35.9,2.8-36.1,2.8c-2.9-0.4-5.7,1.2-6.9,3.9c-0.7,1.5-0.7,3.2-0.2,4.8l-30.5,4
		C64.6,429.4,55.8,409.5,48,389.5z"/>
	<path class="st9" d="M90.9,309.4L57.2,435.9c3.4,3.7,6.3,7.8,8.7,12.3c1.8,3.2,3.2,7.1,6.9,8.6c4.8,1.9,10.9,1.2,16.6,0.3
		l41.2-154.8C117.4,304.9,104.2,307.4,90.9,309.4z"/>
	<path class="st9" d="M143.3,299.7l-41.4,155.7c6.5-0.8,12.9-1.6,19.3-3l41.7-156.7C156.4,297.1,149.9,298.4,143.3,299.7z"/>
	<path class="st9" d="M340,420.8l41.2-155.1c-0.1,0.1-0.2,0.1-0.3,0.2c-6.6,2.2-13.2,4.1-19.8,6l-40.6,152.8
		C326.8,422.7,333.4,421.6,340,420.8z"/>
	<path class="st9" d="M309.5,423.1l40.7-152.9c-13.2,2.1-26.7,3.1-39.5,6.5l-41.7,156.9C282.6,430.8,296,426.9,309.5,423.1z"/>
	<g id="Color">
		<path class="st0" d="M186.7,158.2C251.2,94.7,337,59.7,428.3,59.7c91.3,0,177.1,35,241.6,98.5c22,21.7,40.6,45.7,55.6,71.7
			c-19.6,37.1-55.6,87-117.9,122.8c-37.8,21.8-80.9,35.3-124.9,39.2c0.4-14.7-1.1-30.6-4.3-48.2c-1.2-6.8-2.8-13.8-4.5-20.9
			l79.2-37.4l2.8,9c0.6,1.9,2,3.4,3.8,4.1c1.8,0.8,3.8,0.7,5.6-0.2l31.4-16.2c3.1-1.6,4.4-5.4,3-8.6l-22.3-49.7
			c-0.7-1.6-2.1-2.9-3.7-3.5c-1.7-0.6-3.5-0.5-5.1,0.2l-106.5,50.8L463,259c0.1-2-0.6-4-2.1-5.3c-1.5-1.4-3.5-2-5.5-1.7l-6.2,0.9
			c-4-7-9.4-13.5-14.2-19.2l-1-1.2c-12.4-14.9-26.4-28.1-41.7-39.2c-20.7-15.1-43.3-25.9-67.2-32.3c-25.8-6.9-53.3-8.2-79.4-3.8
			c-25.5,4.3-50.3,13.8-73.8,28.2c-7.3,4.5-14.4,9.4-21.3,14.7C161.3,185.3,173.4,171.3,186.7,158.2z"/>
		<path class="st0" d="M360.4,624.8c-4.9-15.7,5.6-41.7,30.1-75.2c7.8,4.4,36.3,23.9,44.2,75.6l0.2,1.6
			c-33.3,10.3-52.1,9.1-62.2,6.1C363.8,630.1,360.9,625.7,360.4,624.8z"/>
		<path class="st0" d="M225,405.7c4.9,6.6,12.4,19.3,12.3,36.1c-6.1,3.3-21.2,10.8-40,14.7c-24.5,5.1-46.4,2.6-65.2-7.3
			C154.7,447.1,191.4,438.3,225,405.7z"/>
	</g>
	<g>
		<path d="M775.7,315c0-0.2,0-0.4-0.1-0.7c-3.8-16.6-9-33.1-15.6-48.8c-1.7-4-3.4-7.9-5.3-11.8c-17.8-39.7-42.8-75.5-74.2-106.4
			c-32.8-32.3-70.9-57.6-113.4-75.3c-44-18.3-90.7-27.6-138.9-27.6s-94.9,9.3-138.9,27.6c-42.5,17.7-80.7,43-113.4,75.3
			c-32.8,32.3-58.5,69.9-76.5,111.7c-2.9,6.7-5.5,13.5-8,20.3c0,0-0.1,0-0.1,0.1c-4.9,4-9,9-11.1,15.1c2.5-0.9,4.8-1.8,7-2.6
			c-1.6,4.9-3,9.9-4.3,14.9l-65.5,9.6c-1.9,0.3-3.6,1.4-4.6,3c-1,1.6-1.3,3.6-0.8,5.4c6.7,23.4,14.6,46.9,23.5,69.6
			c8.5,21.8,18.2,43.5,28.6,64.5c1.1,2.3,3.4,3.6,5.9,3.6c0.3,0,0.6,0,0.9-0.1l6.6-0.9c4.7,24.4,12,48.2,21.9,71.3
			c18,41.9,43.7,79.5,76.5,111.7c32.8,32.3,70.9,57.6,113.4,75.3c44,18.3,90.7,27.6,138.9,27.6s94.9-9.3,138.9-27.6
			c42.5-17.7,80.7-43,113.4-75.3c32.8-32.3,58.5-69.9,76.5-111.7c18.6-43.3,28.1-89.4,28.1-136.9C785.2,368.4,782,341.4,775.7,315z
			 M463.6,313.2l1.5-28.6l103-49.2l17,37.9l-18.9,9.8l-2.7-8.7c-0.6-1.8-1.9-3.3-3.6-4.1c-1.7-0.8-3.7-0.7-5.5,0.1L463.6,313.2z
			 M480.1,418.1c0.3-1.9,0.6-3.7,0.8-5.5c0.3-1.8,0.5-3.7,0.7-5.5c4.4,1.3,11,3.6,18.8,7.4c-4.5,3.9-12.7,11.3-23.2,21.2
			C478.4,429.8,479.2,423.9,480.1,418.1z M505.9,402.3c38.2-6.1,75.2-19.1,108.3-38.2c60.9-35,97.6-82.9,118.9-120.5
			c12.1,23.4,21.3,48.1,27.6,73.8c-29.1,48.5-82.4,79.2-122.6,96.6c-37.5,16.2-70.7,24.1-81.4,26.4
			C539.4,421.2,520.7,409.4,505.9,402.3z M186.7,158.2C251.2,94.7,337,59.7,428.3,59.7c91.3,0,177.1,35,241.6,98.5
			c22,21.7,40.6,45.7,55.6,71.7c-19.6,37.1-55.6,87-117.9,122.8c-37.8,21.8-80.9,35.3-124.9,39.2c0.4-14.7-1.1-30.6-4.3-48.2
			c-1.2-6.8-2.8-13.8-4.5-20.9l79.2-37.4l2.8,9c0.6,1.9,2,3.4,3.8,4.1c1.8,0.8,3.8,0.7,5.6-0.2l31.4-16.2c3.1-1.6,4.4-5.4,3-8.6
			l-22.3-49.7c-0.7-1.6-2.1-2.9-3.7-3.5c-1.7-0.6-3.5-0.5-5.1,0.2l-106.5,50.8L463,259c0.1-2-0.6-4-2.1-5.3c-1.5-1.4-3.5-2-5.5-1.7
			l-6.2,0.9c-4-7-9.4-13.5-14.2-19.2l-1-1.2c-12.4-14.9-26.4-28.1-41.7-39.2c-20.7-15.1-43.3-25.9-67.2-32.3
			c-25.8-6.9-53.3-8.2-79.4-3.8c-25.5,4.3-50.3,13.8-73.8,28.2c-7.3,4.5-14.4,9.4-21.3,14.7C161.3,185.3,173.4,171.3,186.7,158.2z
			 M105.4,285.6c2-0.6,4-1,6-1.4c0.6-0.1,1.2-0.3,1.8-0.4l1.8-0.2c0.6-0.1,1.2-0.2,1.8-0.3c0.6,0,1.2-0.1,1.8-0.2
			c0.6,0,1.2-0.2,1.9-0.2c0.6,0,1.2,0,1.9-0.1c1.3-0.1,2.5-0.1,3.8-0.1c5.2,0,10.6,0.7,16.9,1.6c-3.3-5.5-8.7-9.5-14.8-11.8
			c-0.8-0.3-1.6-0.5-2.3-0.8c-0.8-0.2-1.6-0.4-2.4-0.5c-0.8-0.2-1.6-0.3-2.4-0.5c-0.8-0.1-1.6-0.2-2.5-0.2c-0.8-0.1-1.7-0.1-2.5-0.1
			c-0.8,0-1.7,0.1-2.5,0.1l-2.5,0.2c-0.1,0-0.2,0-0.3,0.1c3.8-9.3,8-18.4,12.6-27.3c16.6-18.9,35.1-34.7,55.1-47
			c22-13.5,45.3-22.4,69.1-26.4c24.3-4.1,49.8-2.9,73.8,3.5c22.3,5.9,43.4,16.1,62.9,30.2c14.4,10.5,27.6,22.9,39.3,36.9l1,1.2
			c3.5,4.2,7.1,8.5,10.1,12.9L99.4,304.4C101.2,298.1,103.2,291.8,105.4,285.6z M48,389.5c-7.8-20-14.9-40.5-21-61.2l422.3-62.1
			l-9.8,132.1l-165.9,22.9c-5.8-16.2-21.3-55.7-38.3-63.4c-4.2-1.9-8.5-2-12.4-0.4c-9.8,4.1-17.4,14.2-22.6,29.9
			c-3.6,10.9-4.7,20.7-4.7,21.1c0,0.3,0,0.6,0,0.9l0.1,3.3c-14.6,9.9-30.6,16.8-47.9,20.6c-20.8,4.6-35.9,2.8-36.1,2.8
			c-2.9-0.4-5.7,1.2-6.9,3.9c-0.7,1.5-0.7,3.2-0.2,4.8l-30.5,4C64.6,429.4,55.8,409.5,48,389.5z M225,405.7
			c4.9,6.6,12.4,19.3,12.3,36.1c-6.1,3.3-21.2,10.8-40,14.7c-24.5,5.1-46.4,2.6-65.2-7.3C154.7,447.1,191.4,438.3,225,405.7z
			 M186.7,633.7c-49-48.3-81.2-108.6-93.9-174.2l25.3-3.3c16.4,10.5,35.1,15.9,55.5,15.9c8.6,0,17.5-1,26.7-2.9
			c26.8-5.6,46.1-17.5,46.9-18c1.8-1.1,3-3,3.1-5.2c2.2-33.2-19.5-54.1-20.4-54.9c-2.6-2.5-6.8-2.4-9.3,0.3
			c-3.4,3.6-6.9,6.9-10.4,10c2.5-11.5,8-27.7,17.9-31.9c0.2-0.1,0.7-0.3,1.8,0.2c10.4,4.7,25.5,38.3,33,60.7c1,3,4,4.9,7.2,4.4
			l176.5-24.3c3.1-0.4,5.4-2.9,5.7-6l5.5-74.2c0.5-0.1,1.1-0.3,1.6-0.5l2.5-1.2c1.4,5.9,2.7,11.8,3.7,17.5
			c4.5,24.6,5.3,45.7,2.4,64.4c-0.3,1.9-0.6,3.7-0.8,5.6c-1.3,8.7-2.6,17.7-4.6,26c-0.1,0.6-0.6,2.5-1.2,4.7c-0.6,2.2-1,4-1.4,5.4
			c-12.8,12.5-27.1,27-41.1,42.3c-24.2,26.5-42.6,50.3-54.7,70.7c-16.2,27.1-21.5,48.1-16.1,64.1l0.1,0.4c0.4,1,4.5,10.2,19.2,15.2
			c6.6,2.3,14.1,3.3,22.3,3.3c21.1,0,46.6-6.9,73.3-17.4c10.3,35,21.7,60.8,34.8,78.8c3.3,4.6,6.9,9,10.5,13.3
			c-25.9,6.1-52.7,9.2-80,9.2C337,732.2,251.2,697.3,186.7,633.7z M360.4,624.8c-4.9-15.7,5.6-41.7,30.1-75.2
			c7.8,4.4,36.3,23.9,44.2,75.6l0.2,1.6c-33.3,10.3-52.1,9.1-62.2,6.1C363.8,630.1,360.9,625.7,360.4,624.8z M669.9,633.7
			c-41.8,41.1-92.5,70.3-147.8,85.7l0.3-0.3c-4.9-5.4-9.7-11.2-14.1-17.2c-12.2-16.8-23.4-42.4-33.2-76.1
			c30.2-12.9,61.2-29.6,88.3-45.6c3.1-1.9,4.2-5.9,2.3-9c-1.9-3.1-5.9-4.2-9-2.3c-46.3,27.4-81.9,44-109.2,53.7
			c-8.5-53.8-37.9-76.7-49.2-83.6c8.7-11.1,18.7-23,30.1-35.5c40.3-44.3,83.8-81.8,84.2-82.2c0,0,0.1-0.1,0.1-0.1
			c11.6,7,24.4,16.9,36.2,30.8c1.3,1.5,3.1,2.3,5,2.3c0.4,0,0.8,0,1.2-0.1c1.6-0.3,40.8-7.7,87.6-27.9
			c38.9-16.8,89.6-45.7,121.5-90.7c3.6,19.7,5.5,39.9,5.5,60.4C770,485.8,734.5,570.2,669.9,633.7z"/>
		<path d="M355.7,138.7c-0.8-0.3-1.6-0.5-2.3-0.8c-0.8-0.2-1.6-0.4-2.4-0.5c-0.8-0.2-1.6-0.3-2.4-0.5c-0.8-0.1-1.6-0.2-2.5-0.2
			c-0.8-0.1-1.7-0.1-2.5-0.1c-0.8,0-1.7,0.1-2.5,0.1l-2.5,0.2c-0.8,0.1-1.6,0.3-2.4,0.4c-6.5,1.3-12.5,4.2-17.4,8.2
			c-4.9,4-9,9-11.1,15.1c3-1.1,5.8-2.2,8.5-3.2c2.7-1,5.3-2,7.8-2.9c5.1-1.8,10-3.2,14.8-4.2c0.6-0.1,1.2-0.3,1.8-0.4l1.8-0.2
			c0.6-0.1,1.2-0.2,1.8-0.3c0.6,0,1.2-0.1,1.8-0.2c0.6,0,1.2-0.2,1.9-0.2c0.6,0,1.2,0,1.9-0.1c1.3-0.1,2.5-0.1,3.8-0.1
			c5.2,0,10.6,0.7,16.9,1.6C367.2,145,361.8,141,355.7,138.7z"/>
	</g>
	<path class="st8" d="M463.6,313.2l1.5-28.6l103-49.2l17,37.9l-18.9,9.8l-2.7-8.7c-0.6-1.8-1.9-3.3-3.6-4.1
		c-1.7-0.8-3.7-0.7-5.5,0.1L463.6,313.2z"/>
</g>
</svg>
